<?xml version="1.0" encoding="utf-8"?>
<!-- Generator: Adobe Illustrator 16.0.0, SVG Export Plug-In . SVG Version: 6.00 Build 0)  -->
<!DOCTYPE svg PUBLIC "-//W3C//DTD SVG 1.1//EN" "http://www.w3.org/Graphics/SVG/1.1/DTD/svg11.dtd">
<svg version="1.1" id="Layer_1" xmlns="http://www.w3.org/2000/svg" xmlns:xlink="http://www.w3.org/1999/xlink" x="0px" y="0px"
	 width="533.76px" height="678.75px" viewBox="0 0 533.76 678.75" enable-background="new 0 0 533.76 678.75" xml:space="preserve">
<polygon fill='' points="26.38,23.872 377.094,23.872 509.38,164.872 514.56,656.871 19.38,656.871 "/>
<path fill='white' d="M528.922,155.75L396.441,6.451C392.801,2.342,387.571,0,382.08,0H19.2C8.594,0,0,8.594,0,19.2v640.351
	c0,10.605,8.594,19.199,19.2,19.199h495.36c10.606,0,19.2-8.594,19.2-19.199V168.492C533.76,163.799,532.032,159.26,528.922,155.75z
	 M400.965,69.412l71.739,80.84h-71.739V69.412z M495.36,640.344H38.4V38.4h324.166v131.052c0,10.606,8.594,19.2,19.199,19.2H495.36
	V640.344z M107.174,327.207c0,10.606,8.595,19.2,19.2,19.2h281.012c10.605,0,19.199-8.594,19.199-19.2
	c0-10.606-8.594-19.2-19.199-19.2H126.374C115.769,308.006,107.174,316.6,107.174,327.207z M407.386,411.787H126.374
	c-10.605,0-19.2,8.594-19.2,19.199s8.595,19.199,19.2,19.199h281.012c10.605,0,19.199-8.594,19.199-19.199
	S417.991,411.787,407.386,411.787z M407.386,515.535H126.374c-10.605,0-19.2,8.594-19.2,19.201c0,10.605,8.595,19.199,19.2,19.199
	h281.012c10.605,0,19.199-8.594,19.199-19.199C426.585,524.129,417.991,515.535,407.386,515.535z"/>
</svg>
