<?xml version="1.0" encoding="utf-8"?>
<!-- Generator: Adobe Illustrator 16.0.4, SVG Export Plug-In . SVG Version: 6.00 Build 0)  -->
<!DOCTYPE svg PUBLIC "-//W3C//DTD SVG 1.1//EN" "http://www.w3.org/Graphics/SVG/1.1/DTD/svg11.dtd">
<svg version="1.1" id="Layer_1" xmlns="http://www.w3.org/2000/svg" xmlns:xlink="http://www.w3.org/1999/xlink" x="0px" y="0px"
	 width="761.644px" height="421.198px" viewBox="47.862 83.134 761.644 421.198"
	 enable-background="new 47.862 83.134 761.644 421.198" xml:space="preserve">
<g id="kJUVV1_1_">
	<g>
		<path fill="#FFFFFF" d="M52.149,83.137c2.313,0.566,3.807,2.162,5.248,3.944c25.313,31.286,50.652,62.552,75.992,93.817
			c2.889,3.564,7.489,3.557,10.465-0.086c9.864-12.077,19.689-24.187,29.525-36.288c15.859-19.515,31.718-39.032,47.57-58.554
			c1.337-1.647,2.93-2.609,5.142-2.224c1.93,0.338,2.882,1.36,3.01,3.317c0.019,0.273,0.011,0.548,0.011,0.823
			c0,55.695-0.002,111.389,0.008,167.084c0,2.466-0.782,4.645-2.791,6.022c-1.287,0.883-2.957,1.634-4.476,1.676
			c-6.586,0.18-13.18,0.096-19.771,0.07c-3.767-0.015-6.828-2.785-7.259-6.523c-0.106-0.924-0.134-1.863-0.134-2.794
			c-0.007-24.167-0.005-48.334-0.01-72.502c0-0.822,0.11-1.694-0.12-2.456c-0.28-0.927-0.867-1.763-1.321-2.638
			c-0.864,0.479-1.933,0.776-2.555,1.471c-2.306,2.576-4.458,5.29-6.678,7.941c-13.392,16.001-26.781,32.006-40.186,47.997
			c-3.244,3.869-7.001,3.862-10.243-0.029c-14.943-17.926-29.865-35.868-44.801-53.799c-0.772-0.927-1.529-1.887-2.427-2.681
			c-1.585-1.403-3.03-0.891-3.458,1.189c-0.153,0.741-0.119,1.529-0.119,2.295c-0.006,24.771-0.001,49.543-0.009,74.315
			c-0.001,4.146-2.109,7.094-5.726,8.011c-0.679,0.172-1.409,0.199-2.117,0.201c-6.207,0.015-12.413,0.011-18.62,0.007
			c-4.045-0.002-6.771-1.975-8.153-5.876c-0.05-0.141-0.187-0.252-0.284-0.379c0-56.906,0-113.812,0-170.717
			c0.673-1.615,2.062-2.246,3.625-2.637C51.71,83.137,51.93,83.137,52.149,83.137z"/>
		<path fill="#FFFFFF" d="M521.13,504.33c-4.309-1.582-5.783-4.721-5.777-9.217c0.078-53.055,0.047-106.107,0.076-159.16
			c0-1.51,0.088-3.146,0.658-4.504c1.203-2.861,3.523-4.42,6.711-4.42c38.559-0.006,77.111-0.006,115.664,0.002
			c3.732,0,6.988,2.887,7.168,6.766c0.248,5.371,0.318,10.762,0.15,16.135c-0.141,4.42-3.271,7.08-7.857,7.082
			c-25.373,0.016-50.746,0.008-76.121,0.01c-1.645,0-3.295-0.029-4.941,0.008c-4.285,0.094-7.428,3.115-7.453,7.369
			c-0.061,9.887-0.057,19.771-0.004,29.656c0.021,4.207,3.02,7.197,7.234,7.434c0.604,0.035,1.207,0.02,1.812,0.02
			c22.791,0,45.584,0,68.377,0.002c5.059,0,8.043,2.793,8.146,7.848c0.1,4.938,0.088,9.885,0.006,14.826
			c-0.088,5.156-3.023,7.973-8.201,7.977c-23.123,0.01-46.242,0.002-69.365,0.008c-3.918,0-6.836,1.984-7.754,5.361
			c-0.254,0.932-0.268,1.951-0.27,2.93c-0.02,8.295,0.139,16.59-0.064,24.879c-0.133,5.268,3.658,8.398,8.385,8.385
			c26.582-0.076,53.164,0.035,79.746-0.109c4.428-0.023,8.623,2.854,8.447,8.498c-0.135,4.336-0.156,8.684,0.012,13.016
			c0.172,4.492-1.498,7.635-5.812,9.203C600.447,504.33,560.787,504.33,521.13,504.33z"/>
		<path fill="#FFFFFF" d="M809.505,329.656c-0.326,2.432-0.666,4.859-0.979,7.293c-3.646,28.336-22.816,50.209-50.49,57.611
			c-10.775,2.883-21.729,3.471-32.809,2.682c-13.049-0.928-25.215-4.65-36.232-11.697c-16.016-10.238-25.615-25.006-29.318-43.502
			c-1.217-6.096-1.828-12.406-1.859-18.623c-0.182-32.459-0.09-64.921-0.07-97.382c0-1.087,0.072-2.217,0.367-3.253
			c0.891-3.121,3.73-5.168,7.018-5.173c6.316-0.01,12.635-0.012,18.949,0c4.168,0.008,7.188,2.815,7.496,6.954
			c0.062,0.82,0.062,1.647,0.062,2.469c0.004,31.967-0.006,63.934,0.01,95.901c0.004,6.008,0.443,12.012,2.611,17.652
			c5.436,14.139,15.225,23.199,30.484,26.041c8.514,1.586,16.812,0.92,24.797-1.938c12.818-4.59,20.697-14.08,24.281-27.018
			c1.172-4.225,1.676-8.764,1.691-13.162c0.143-32.898,0.08-65.799,0.088-98.699c0-4.134,1.994-7.02,5.539-7.963
			c0.729-0.194,1.516-0.23,2.275-0.232c6.043-0.019,12.084-0.012,18.125-0.01c3.934,0.001,6.162,1.533,7.662,5.24
			c0.055,0.137,0.199,0.238,0.301,0.356C809.505,258.688,809.505,294.172,809.505,329.656z"/>
		<path fill="#FFFFFF" d="M437.001,456.845c-20.115-0.125-39.102-4.404-56.587-14.518c-4.363-2.521-8.548-5.363-12.735-8.176
			c-3.35-2.25-4.299-6.117-2.115-9.527c3.521-5.496,7.217-10.887,11.021-16.191c1.997-2.787,5.798-3.254,9.076-1.439
			c1.679,0.928,3.282,1.994,4.949,2.947c8.333,4.758,16.668,9.561,25.882,12.432c10.916,3.402,22.025,4.451,33.246,1.537
			c6.777-1.76,12.818-4.861,17.215-10.545c5.668-7.334,6.031-17.82-4.199-23.807c-1.838-1.074-3.705-2.266-5.717-2.855
			c-6.506-1.912-13.037-3.793-19.65-5.271c-9.777-2.184-19.706-3.715-29.437-6.07c-8.979-2.178-17.515-5.707-25.142-11.078
			c-8.842-6.229-15.609-14.143-17.927-24.936c-3.279-15.264-1.771-29.82,8.01-42.692c6.875-9.048,16.223-14.427,26.916-17.683
			c12.859-3.914,26.023-4.969,39.389-4.092c10.52,0.69,20.793,2.675,30.52,6.741c5.082,2.125,9.836,5.046,14.703,7.675
			c1.879,1.016,3.639,2.246,5.484,3.328c3.973,2.326,5.084,6.657,2.51,10.417c-3.352,4.889-6.77,9.734-10.234,14.541
			c-2.682,3.723-6.875,4.488-10.904,1.967c-6.904-4.324-14.082-8.098-21.887-10.482c-12.578-3.84-25.236-4.729-37.728,0.234
			c-3.311,1.316-6.472,3.262-9.326,5.416c-6.029,4.549-7.654,15.4,0.538,21.266c5.017,3.592,10.607,5.754,16.479,7.154
			c11.709,2.799,23.486,5.33,35.238,7.957c10.756,2.402,21.133,5.727,30.438,11.889c10.207,6.758,16.383,16.189,18.67,28.115
			c1.975,10.299,1.521,20.555-1.787,30.553c-4.18,12.623-12.996,21.107-24.619,26.977c-7.578,3.826-15.713,5.814-24.064,6.859
			C447.843,456.158,442.41,456.406,437.001,456.845z"/>
		<path fill="#FFFFFF" d="M349.085,332.941c-0.001,16.094,0.078,32.188-0.027,48.279c-0.085,13.021-2.785,25.457-9.012,37.012
			c-8.185,15.182-20.736,25.322-36.85,30.855c-19.48,6.689-39.315,6.977-58.801,0.301c-25.832-8.846-40.989-27.266-45.758-54.096
			c-0.916-5.158-1.244-10.48-1.262-15.729c-0.11-32.352-0.045-64.703-0.072-97.055c-0.003-2.98,0.679-5.621,3.32-7.258
			c1.111-0.688,2.528-1.207,3.816-1.23c6.534-0.122,13.071-0.08,19.607-0.046c3.659,0.019,6.735,2.879,7.074,6.502
			c0.087,0.928,0.105,1.865,0.105,2.797c0.005,31.968-0.003,63.935,0.01,95.899c0.003,6.062,0.438,12.119,2.632,17.814
			c5.446,14.143,15.252,23.176,30.513,26.004c8.519,1.578,16.813,0.898,24.795-1.965c12.817-4.602,20.68-14.104,24.243-27.045
			c1.164-4.23,1.667-8.764,1.685-13.162c0.14-32.9,0.079-65.803,0.087-98.703c0.001-4.104,2.037-7,5.587-7.934
			c0.626-0.164,1.298-0.21,1.95-0.212c6.261-0.016,12.522-0.018,18.784-0.006c4.438,0.008,7.567,3.118,7.57,7.562
			C349.094,298.667,349.087,315.804,349.085,332.941z"/>
		<path fill="#FFFFFF" d="M552.089,237.382c2.195,0,4.395-0.003,6.59,0c2.111,0.004,2.346,0.25,2.258,2.415
			c-0.258,6.534-3.377,11.227-9.438,13.579c-6.344,2.463-12.238,1.298-17.164-3.493c-6.26-6.088-6.199-16.109,0.002-22.143
			c6.391-6.216,16.855-6.053,22.768,0.356c1.424,1.546,1.354,2.053-0.436,3.143c-0.422,0.256-0.871,0.476-1.262,0.771
			c-1.201,0.911-2.139,0.617-3.145-0.42c-2.461-2.533-5.418-3.627-8.967-2.801c-3.893,0.906-7.326,4.875-7.676,8.929
			c-0.404,4.705,2.197,9.057,6.459,10.807c3.752,1.543,8.1,0.404,10.855-2.852c0.248-0.292,0.482-0.599,0.684-0.925
			c0.928-1.512,0.633-2.072-1.119-2.085c-2.416-0.018-4.834-0.052-7.248,0.012c-1.434,0.039-2.016-0.598-1.971-1.964
			c0.016-0.493,0.008-0.988,0.002-1.482c-0.02-1.279,0.518-1.905,1.887-1.866C547.474,237.43,549.783,237.382,552.089,237.382z"/>
		<path fill="#FFFFFF" d="M339.216,238.61c0-4.334,0.047-8.67-0.025-13.004c-0.026-1.591,0.573-2.119,2.132-2.091
			c4.058,0.074,8.12,0.007,12.18,0.03c4.568,0.027,8.233,2.703,9.538,6.919c1.464,4.729-0.045,9.575-3.788,12.165
			c-1.775,1.229-1.776,1.25-0.458,3.021c1.572,2.111,3.162,4.208,4.687,6.353c0.282,0.396,0.436,1.009,0.359,1.475
			c-0.031,0.192-0.815,0.305-1.27,0.38c-3.39,0.554-5.923-0.519-7.598-3.679c-0.839-1.583-2.083-2.953-3.161-4.405
			c-0.98-1.319-4.64-2.139-5.992-1.242c-0.396,0.263-0.66,0.983-0.683,1.507c-0.08,1.917-0.076,3.841-0.018,5.759
			c0.042,1.434-0.442,2.1-1.993,2.073c-4.209-0.072-3.926,0.366-3.915-3.903C339.224,246.183,339.216,242.396,339.216,238.61z
			 M349.986,228.821c-1.095,0-2.189-0.003-3.283,0c-1.063,0.003-1.611,0.492-1.601,1.602c0.021,2.353,0.018,4.705,0.003,7.058
			c-0.007,1.036,0.538,1.522,1.505,1.533c2.188,0.022,4.384,0.108,6.563-0.033c2.841-0.184,4.595-2.325,4.497-5.229
			c-0.107-3.184-1.784-4.878-4.895-4.932C351.846,228.806,350.916,228.819,349.986,228.821z"/>
		<path fill="#FFFFFF" d="M628.74,223.21c8.709,0.013,15.674,6.999,15.658,15.706c-0.016,8.742-7.031,15.606-15.936,15.591
			c-8.539-0.015-15.639-7.099-15.652-15.62C612.798,230.237,619.953,223.197,628.74,223.21z M638.505,238.77
			c-0.02-5.52-4.604-10.283-9.887-10.277c-5.316,0.005-9.994,4.922-9.941,10.449c0.057,5.473,4.707,10.282,9.949,10.285
			C633.957,249.227,638.527,244.389,638.505,238.77z"/>
		<path fill="#FFFFFF" d="M464.781,238.895c-0.01,8.748-7.021,15.626-15.912,15.613c-8.551-0.012-15.646-7.076-15.674-15.598
			c-0.025-8.65,7.127-15.71,15.906-15.699C457.82,223.221,464.791,230.193,464.781,238.895z M458.892,238.836
			c-0.004-5.535-4.527-10.298-9.822-10.344c-5.299-0.045-10.023,4.859-10.008,10.383c0.018,5.467,4.629,10.299,9.883,10.352
			C454.261,249.277,458.894,244.441,458.892,238.836z"/>
		<path fill="#FFFFFF" d="M384.208,223.21c8.703,0.014,15.666,7.006,15.648,15.716c-0.018,8.739-7.038,15.598-15.943,15.581
			c-8.537-0.017-15.636-7.11-15.644-15.629C368.262,230.229,375.416,223.196,384.208,223.21z M393.966,238.859
			c0.004-5.54-4.5-10.304-9.8-10.367c-5.293-0.063-10.034,4.833-10.03,10.36c0.003,5.533,4.733,10.43,10.023,10.374
			C389.442,249.17,393.962,244.391,393.966,238.859z"/>
		<path fill="#FFFFFF" d="M525.425,238.898c-0.01,8.732-7.012,15.619-15.875,15.609c-8.617-0.009-15.74-7.118-15.713-15.684
			c0.025-8.64,7.166-15.629,15.951-15.613C518.474,223.226,525.433,230.209,525.425,238.898z M519.535,238.853
			c0-5.55-4.494-10.301-9.807-10.361c-5.297-0.06-10.033,4.839-10.025,10.367c0.006,5.468,4.607,10.303,9.867,10.367
			C514.894,249.291,519.533,244.462,519.535,238.853z"/>
		<path fill="#FFFFFF" d="M286.114,236.548c0,4.825,0,9.649-0.001,14.473c0,2.491-0.26,2.754-2.695,2.761
			c-0.384,0.001-0.77-0.016-1.152,0.003c-1.44,0.066-2.082-0.544-2.063-2.053c0.057-4.5,0.02-9.002,0.02-13.503
			c0-4.117-0.023-8.234,0.021-12.351c0.008-0.764,0.277-1.526,0.427-2.289c0.724,0.415,1.558,0.711,2.154,1.264
			c5.396,4.999,10.749,10.043,16.116,15.072c0.431,0.403,0.879,0.785,1.647,1.469c0.083-0.938,0.172-1.491,0.173-2.044
			c0.012-4.5,0-9.002,0.01-13.503c0.004-2.08,0.229-2.296,2.231-2.307c3.663-0.019,3.663-0.019,3.663,3.651
			c0,8.179,0.01,16.357-0.019,24.536c-0.001,0.605-0.266,1.208-0.408,1.811c-0.608-0.278-1.339-0.423-1.81-0.853
			c-5.469-5-10.897-10.044-16.341-15.071c-0.5-0.461-1.034-0.884-1.551-1.326C286.396,236.375,286.255,236.461,286.114,236.548z"/>
		<path fill="#FFFFFF" d="M405.79,238.58c0-4.28-0.004-8.561,0.002-12.84c0.001-2.023,0.168-2.194,2.134-2.198
			c3.787-0.007,7.573-0.01,11.359,0c5.986,0.015,10.773,4.636,10.867,10.476c0.1,6.298-4.088,10.698-10.439,10.911
			c-2.084,0.07-4.17,0.048-6.255,0.032c-1.224-0.01-1.822,0.487-1.789,1.768c0.047,1.81,0.001,3.622,0.012,5.433
			c0.008,1.143-0.487,1.716-1.682,1.709c-4.594-0.021-4.224,0.379-4.213-3.932C405.797,246.153,405.79,242.366,405.79,238.58z
			 M411.681,234.257c0,1.208,0.04,2.417-0.01,3.622c-0.053,1.263,0.525,1.82,1.757,1.811c1.811-0.012,3.623,0.018,5.434-0.007
			c3.38-0.047,5.3-1.798,5.397-4.889c0.104-3.264-1.926-5.71-5.091-5.933c-1.966-0.137-3.95-0.042-5.927-0.038
			c-1.081,0.002-1.592,0.547-1.565,1.646C411.706,231.732,411.682,232.995,411.681,234.257z"/>
		<path fill="#FFFFFF" d="M272.228,253.837c-1.989,0.562-3.303-0.55-4.073-2.628c-0.547-1.479-1.639-2.017-3.218-1.981
			c-3.346,0.079-6.696,0.053-10.043,0.01c-1.36-0.018-2.244,0.471-2.865,1.727c-1.337,2.703-3.861,3.74-6.715,2.854
			c-1.165-0.362-0.546-1.122-0.257-1.701c2.032-4.067,4.095-8.119,6.146-12.177c2.496-4.937,4.972-9.883,7.505-14.801
			c0.293-0.571,0.899-0.981,1.358-1.466c0.449,0.506,1.03,0.945,1.327,1.528c4.346,8.543,8.652,17.108,12.973,25.665
			C275.739,253.584,276.339,253.974,272.228,253.837z M260.32,235.577c-0.188-0.006-0.375-0.014-0.562-0.021
			c-1.184,2.472-2.386,4.934-3.511,7.431c-0.083,0.187,0.374,0.889,0.596,0.897c2.071,0.079,4.147,0.093,6.218,0.018
			c0.241-0.008,0.739-0.786,0.645-1.001C262.63,240.438,261.463,238.013,260.32,235.577z"/>
		<path fill="#FFFFFF" d="M597.208,223.212c3.451,0.098,7.656,1.992,10.852,5.965c1.186,1.475,1.053,1.934-0.646,2.649
			c-0.555,0.234-1.137,0.412-1.67,0.685c-1.203,0.614-2.119,0.364-3.074-0.606c-3.523-3.576-7.631-4.358-11.488-2.297
			c-3.836,2.049-6.145,6.731-5.4,10.952c0.809,4.576,4.449,8.151,8.957,8.604c2.973,0.299,5.451-0.911,7.547-2.973
			c1.574-1.547,4.766-1.518,6.135,0.211c0.285,0.361,0.055,1.464-0.307,1.954c-5.025,6.838-15.15,8.208-22.016,3.039
			c-5.451-4.105-7.68-11.14-5.535-17.467C582.75,227.475,588.742,223.204,597.208,223.212z"/>
		<path fill="#FFFFFF" d="M320.146,241.338c0-3.456,0.007-6.911-0.003-10.367c-0.005-1.931-0.229-2.141-2.212-2.151
			c-1.59-0.008-3.182-0.024-4.772,0.003c-1.188,0.022-1.636-0.54-1.683-1.699c-0.144-3.533-0.123-3.585,3.398-3.585
			c5.924,0,11.848,0.043,17.771-0.028c1.603-0.02,2.217,0.601,2.12,2.122c-0.028,0.437-0.016,0.877-0.004,1.315
			c0.031,1.276-0.491,1.936-1.862,1.882c-1.588-0.061-3.183,0.042-4.771-0.028c-1.581-0.071-2.124,0.628-2.114,2.163
			c0.044,6.856,0.022,13.713,0.018,20.569c-0.001,2.217-0.103,2.308-2.346,2.313c-3.541,0.008-3.541,0.008-3.541-3.46
			C320.146,247.372,320.146,244.354,320.146,241.338z"/>
		<path fill="#FFFFFF" d="M470.716,238.646c-0.002-4.39,0.031-8.782-0.018-13.172c-0.02-1.403,0.49-1.954,1.924-1.957
			c3.984-0.01,3.984-0.055,3.984,3.867c0,6.312-0.004,12.624,0,18.935c0.002,2.028,0.234,2.261,2.275,2.266
			c3.951,0.008,7.904,0.045,11.854-0.02c1.457-0.023,1.998,0.614,1.959,1.963c-0.018,0.548,0.004,1.097-0.008,1.646
			c-0.025,1.117-0.521,1.701-1.721,1.697c-6.203-0.021-12.404-0.018-18.605-0.002c-1.322,0.003-1.668-0.702-1.658-1.887
			C470.734,247.538,470.716,243.093,470.716,238.646z"/>
		<path fill="#FFFFFF" d="M572.958,238.891c0,4.282-0.039,8.565,0.021,12.846c0.021,1.524-0.467,2.173-2.084,2.158
			c-3.834-0.032-3.836,0.028-3.836-3.865c0-7.906-0.002-15.811,0.002-23.717c0.004-2.279,0.17-2.439,2.414-2.442
			c3.482-0.007,3.482-0.007,3.482,3.492C572.96,231.205,572.96,235.048,572.958,238.891z"/>
		<path fill="#FFFFFF" d="M506.292,221.938c1.506-1.903,2.814-3.609,4.201-5.251c0.223-0.261,0.854-0.419,1.182-0.302
			c1.205,0.43,2.361,0.994,3.561,1.518C513.501,220.869,509.636,222.688,506.292,221.938z"/>
	</g>
</g>
</svg>
